#Comment line ignore any data following # character 
#Hierarchical Translation and Rotation (.htr) file 
[Header]	
#Header keywords are followed by a single value 
FileType HTR		#Single word string
DataType HTRS		#Translation followed by rotation and scale data
FileVersion 1		#integer
NumSegments 64		#integer
NumFrames 3		#integer
DataFrameRate 30		#integer, data frame rate in this file
EulerRotationOrder ZYX
CalibrationUnits mm
RotationUnits Degrees
GlobalAxisofGravity Y
BoneLengthAxis Y
ScaleFactor 1.00
[SegmentNames&Hierarchy]
#CHILD	PARENT
Pinger_Root GLOBAL
Pelvis Pinger_Root
L_Hip Pelvis
R_Hip Pelvis
Rear_Leg01 Pelvis
Spine1 Pelvis
L_Leg01 L_Hip
L_Leg02 L_Leg01
L_Leg03 L_Leg02
L_Foot L_Leg03
L_Toe1_01 L_Foot
L_Toe2_01 L_Foot
L_Toe3_01 L_Foot
planeAlignerLeft L_Foot
L_Toe1_02 L_Toe1_01
L_Toe1_03 L_Toe1_02
L_Toe2_02 L_Toe2_01
L_Toe2_03 L_Toe2_02
L_Toe3_02 L_Toe3_01
L_Toe3_03 L_Toe3_02
planeLockWeightLeft planeAlignerLeft
R_Leg01 R_Hip
R_Leg02 R_Leg01
R_Leg03 R_Leg02
R_Foot R_Leg03
planeAlignerRight R_Foot
R_Toe1_01 R_Foot
R_Toe2_01 R_Foot
R_Toe3_01 R_Foot
planeLockWeightRight planeAlignerRight
R_Toe1_02 R_Toe1_01
R_Toe1_03 R_Toe1_02
R_Toe2_02 R_Toe2_01
R_Toe2_03 R_Toe2_02
R_Toe3_02 R_Toe3_01
R_Toe3_03 R_Toe3_02
Rear_Leg02 Rear_Leg01
Rear_Leg03 Rear_Leg02
Rear_Leg04 Rear_Leg03
Rear_Foot Rear_Leg04
planeAlignerCenter Rear_Foot
Rear_Toe1_01 Rear_Foot
Rear_Toe2_01 Rear_Foot
Rear_Toe3_01 Rear_Foot
planeLockWeightCenter planeAlignerCenter
Rear_Toe1_02 Rear_Toe1_01
Rear_Toe1_03 Rear_Toe1_02
Rear_Toe2_02 Rear_Toe2_01
Rear_Toe2_03 Rear_Toe2_02
Rear_Toe3_02 Rear_Toe3_01
Rear_Toe3_03 Rear_Toe3_02
Back_Bone Spine1
Head Spine1
Motor_Bone Back_Bone
Ping_Mechanism Back_Bone
BN_LookIK Head
bottomMouth Head
L_Mouth01 Head
L_mouthFront Head
mouthGun Head
R_Mouth01 Head
R_mouthFront Head
TopMouth Head
weapon_bone Head
[BasePosition]
#SegmentName Tx, Ty, Tz, Rx, Ry, Rz, BoneLength
Pinger_Root 0.000000 0.000000 0.000000 -90.000000 0.000000 0.000000 10.000000 
Pelvis 0.000000 0.000000 0.000000 0.000000 0.000000 0.000000 10.000000 
L_Hip 0.000000 0.000000 0.000000 0.000000 0.000000 0.000000 10.000000 
R_Hip 0.000000 0.000000 0.000000 0.000000 0.000000 0.000000 10.000000 
Rear_Leg01 0.000000 0.000000 0.000000 0.000000 0.000000 0.000000 10.000000 
Spine1 0.000000 0.000000 0.000000 0.000000 0.000000 0.000000 10.000000 
L_Leg01 0.000000 0.000000 0.000000 0.000000 0.000000 0.000000 10.000000 
L_Leg02 0.000000 0.000000 0.000000 0.000000 0.000000 0.000000 10.000000 
L_Leg03 0.000000 0.000000 0.000000 0.000000 0.000000 0.000000 10.000000 
L_Foot 0.000000 0.000000 0.000000 0.000000 0.000000 0.000000 10.000000 
L_Toe1_01 0.000000 0.000000 0.000000 0.000000 0.000000 0.000000 10.000000 
L_Toe2_01 0.000000 0.000000 0.000000 0.000000 0.000000 0.000000 10.000000 
L_Toe3_01 0.000000 0.000000 0.000000 0.000000 0.000000 0.000000 10.000000 
planeAlignerLeft 0.000000 0.000000 0.000000 0.000000 0.000000 0.000000 10.000000 
L_Toe1_02 0.000000 0.000000 0.000000 0.000000 0.000000 0.000000 10.000000 
L_Toe1_03 0.000000 0.000000 0.000000 0.000000 0.000000 0.000000 10.000000 
L_Toe2_02 0.000000 0.000000 0.000000 0.000000 0.000000 0.000000 10.000000 
L_Toe2_03 0.000000 0.000000 0.000000 0.000000 0.000000 0.000000 10.000000 
L_Toe3_02 0.000000 0.000000 0.000000 0.000000 0.000000 0.000000 10.000000 
L_Toe3_03 0.000000 0.000000 0.000000 0.000000 0.000000 0.000000 10.000000 
planeLockWeightLeft 0.000000 0.000000 0.000000 0.000000 0.000000 0.000000 10.000000 
R_Leg01 0.000000 0.000000 0.000000 0.000000 0.000000 0.000000 10.000000 
R_Leg02 0.000000 0.000000 0.000000 0.000000 0.000000 0.000000 10.000000 
R_Leg03 0.000000 0.000000 0.000000 0.000000 0.000000 0.000000 10.000000 
R_Foot 0.000000 0.000000 0.000000 0.000000 0.000000 0.000000 10.000000 
planeAlignerRight 0.000000 0.000000 0.000000 0.000000 0.000000 0.000000 10.000000 
R_Toe1_01 0.000000 0.000000 0.000000 0.000000 0.000000 0.000000 10.000000 
R_Toe2_01 0.000000 0.000000 0.000000 0.000000 0.000000 0.000000 10.000000 
R_Toe3_01 0.000000 0.000000 0.000000 0.000000 0.000000 0.000000 10.000000 
planeLockWeightRight 0.000000 0.000000 0.000000 0.000000 0.000000 0.000000 10.000000 
R_Toe1_02 0.000000 0.000000 0.000000 0.000000 0.000000 0.000000 10.000000 
R_Toe1_03 0.000000 0.000000 0.000000 0.000000 0.000000 0.000000 10.000000 
R_Toe2_02 0.000000 0.000000 0.000000 0.000000 0.000000 0.000000 10.000000 
R_Toe2_03 0.000000 0.000000 0.000000 0.000000 0.000000 0.000000 10.000000 
R_Toe3_02 0.000000 0.000000 0.000000 0.000000 0.000000 0.000000 10.000000 
R_Toe3_03 0.000000 0.000000 0.000000 0.000000 0.000000 0.000000 10.000000 
Rear_Leg02 0.000000 0.000000 0.000000 0.000000 0.000000 0.000000 10.000000 
Rear_Leg03 0.000000 0.000000 0.000000 0.000000 0.000000 0.000000 10.000000 
Rear_Leg04 0.000000 0.000000 0.000000 0.000000 0.000000 0.000000 10.000000 
Rear_Foot 0.000000 0.000000 0.000000 0.000000 0.000000 0.000000 10.000000 
planeAlignerCenter 0.000000 0.000000 0.000000 0.000000 0.000000 0.000000 10.000000 
Rear_Toe1_01 0.000000 0.000000 0.000000 0.000000 0.000000 0.000000 10.000000 
Rear_Toe2_01 0.000000 0.000000 0.000000 0.000000 0.000000 0.000000 10.000000 
Rear_Toe3_01 0.000000 0.000000 0.000000 0.000000 0.000000 0.000000 10.000000 
planeLockWeightCenter 0.000000 0.000000 0.000000 0.000000 0.000000 0.000000 10.000000 
Rear_Toe1_02 0.000000 0.000000 0.000000 0.000000 0.000000 0.000000 10.000000 
Rear_Toe1_03 0.000000 0.000000 0.000000 0.000000 0.000000 0.000000 10.000000 
Rear_Toe2_02 0.000000 0.000000 0.000000 0.000000 0.000000 0.000000 10.000000 
Rear_Toe2_03 0.000000 0.000000 0.000000 0.000000 0.000000 0.000000 10.000000 
Rear_Toe3_02 0.000000 0.000000 0.000000 0.000000 0.000000 0.000000 10.000000 
Rear_Toe3_03 0.000000 0.000000 0.000000 0.000000 0.000000 0.000000 10.000000 
Back_Bone 0.000000 0.000000 0.000000 0.000000 0.000000 0.000000 10.000000 
Head 0.000000 0.000000 0.000000 0.000000 0.000000 0.000000 10.000000 
Motor_Bone 0.000000 0.000000 0.000000 0.000000 0.000000 0.000000 10.000000 
Ping_Mechanism 0.000000 0.000000 0.000000 0.000000 0.000000 0.000000 10.000000 
BN_LookIK 0.000000 0.000000 0.000000 0.000000 0.000000 0.000000 10.000000 
bottomMouth 0.000000 0.000000 0.000000 0.000000 0.000000 0.000000 10.000000 
L_Mouth01 0.000000 0.000000 0.000000 0.000000 0.000000 0.000000 10.000000 
L_mouthFront 0.000000 0.000000 0.000000 0.000000 0.000000 0.000000 10.000000 
mouthGun 0.000000 0.000000 0.000000 0.000000 0.000000 0.000000 10.000000 
R_Mouth01 0.000000 0.000000 0.000000 0.000000 0.000000 0.000000 10.000000 
R_mouthFront 0.000000 0.000000 0.000000 0.000000 0.000000 0.000000 10.000000 
TopMouth 0.000000 0.000000 0.000000 0.000000 0.000000 0.000000 10.000000 
weapon_bone 0.000000 0.000000 0.000000 0.000000 0.000000 0.000000 10.000000 
#Beginning of Data. Separated by tabs
#Fr	Tx	Ty	Tz	Rx	Ry	Rz	SF
[Pinger_Root]
36 0.000000 0.000000 0.000000 -0.000075 -0.000000 -0.000020 0.000000
37 0.000000 0.000000 0.000000 -0.000075 -0.000000 -0.000020 0.000000
38 0.000000 0.000000 0.000000 -0.000075 -0.000000 -0.000020 0.000000
[Pelvis]
36 -768.594299 511.208130 4231.038574 -138.120712 -79.100967 130.010605 4330.561035
37 -749.444031 532.145813 4217.494141 -134.895432 -79.160919 126.803307 4316.491699
38 -723.112305 560.159363 4206.090820 -130.646179 -79.400429 122.604942 4304.401367
[L_Hip]
36 5.766392 125.831482 872.656799 160.158691 -45.484905 122.312202 881.701050
37 5.766392 125.831482 872.656799 160.158691 -45.484905 122.312202 881.701050
38 5.766392 125.831482 872.656799 160.158691 -45.484905 122.312202 881.701050
[R_Hip]
36 5.765438 125.836372 -872.654907 38.087841 49.812687 125.703735 881.699829
37 5.765438 125.836372 -872.654907 38.087841 49.812687 125.703735 881.699829
38 5.765438 125.836372 -872.654907 38.087841 49.812687 125.703735 881.699829
[Rear_Leg01]
36 -192.298416 -925.602966 -0.001907 168.945129 6.807239 -168.195374 945.367432
37 -192.298416 -925.602966 -0.001907 169.073898 6.979338 -168.307053 945.367432
38 -192.298416 -925.602966 -0.001907 169.326416 7.365985 -168.217606 945.367432
[Spine1]
36 290.604584 5.007505 0.000477 22.742052 -12.945404 -0.302787 290.647736
37 290.604584 5.007505 0.000477 20.018953 -14.617711 0.946949 290.647736
38 290.604584 5.007505 0.000477 16.373394 -16.365356 2.791194 290.647736
[L_Leg01]
36 761.932007 -0.002384 -0.069261 11.634376 -22.755413 14.571510 761.932068
37 761.932007 -0.002384 -0.069261 11.181471 -22.815693 14.898725 761.932068
38 761.932007 -0.002384 -0.069261 10.765839 -22.901709 14.689901 761.932068
[L_Leg02]
36 1441.140503 -0.000954 -0.000715 4.588403 -0.176790 -146.938354 1441.140503
37 1441.140503 -0.000954 -0.000715 4.665394 -0.172471 -147.597733 1441.140503
38 1441.140503 -0.000954 -0.000715 4.707413 -0.173579 -147.988907 1441.140503
[L_Leg03]
36 1686.963989 -0.000715 -0.000954 -0.036030 0.016332 120.100670 1686.963989
37 1686.963989 -0.000715 -0.000954 -0.036424 0.017084 120.220657 1686.963989
38 1686.963989 -0.000715 -0.000954 -0.036426 0.017078 120.202995 1686.963989
[L_Foot]
36 3041.570068 -30.715107 11.297464 12.523961 11.912676 55.895920 3041.746094
37 3041.570068 -30.715107 11.297464 12.282827 11.894712 56.364746 3041.746094
38 3041.570068 -30.715107 11.297464 12.041564 11.878675 56.833622 3041.746094
[L_Toe1_01]
36 -188.216690 -224.732346 -21.137953 93.381302 -14.124843 -173.486267 293.899567
37 -188.216690 -224.732346 -21.137953 93.014900 -14.044172 -171.995056 293.899567
38 -188.216690 -224.732346 -21.137953 92.952934 -13.848770 -171.690857 293.899567
[L_Toe2_01]
36 200.746536 -219.926590 148.838394 -87.306862 -37.714104 -51.111664 332.896027
37 200.746536 -219.926590 148.838394 -87.564064 -37.377247 -50.733280 332.896027
38 200.746536 -219.926590 148.838394 -87.893433 -36.816113 -50.326012 332.896027
[L_Toe3_01]
36 188.832520 -219.859131 -191.078659 -96.248718 6.089994 -57.625065 347.140900
37 188.832520 -219.859131 -191.078659 -96.256508 6.439666 -57.411598 347.140900
38 188.832520 -219.859131 -191.078659 -96.262970 6.789366 -57.198032 347.140900
[planeAlignerLeft]
36 0.812531 -811.448792 -0.314951 0.000000 -90.000000 -90.001900 811.449280
37 0.812531 -811.448792 -0.314951 0.000000 -90.000000 -90.001900 811.449280
38 0.812531 -811.448792 -0.314951 0.000000 -90.000000 -90.001900 811.449280
[L_Toe1_02]
36 413.761139 0.000477 0.000000 0.001529 -10.249597 0.001529 413.761139
37 413.761139 0.000477 0.000000 0.001466 -16.314829 0.001466 413.761139
38 413.761139 0.000477 0.000000 0.001431 -20.212158 0.001431 413.761139
[L_Toe1_03]
36 464.317322 0.000358 -0.000089 0.001379 10.347287 -0.003174 464.317322
37 464.317322 0.000358 -0.000089 0.001177 18.254190 -0.003138 464.317322
38 464.317322 0.000358 -0.000089 0.000997 25.245438 -0.003143 464.317322
[L_Toe2_02]
36 342.235809 -0.000477 0.000238 0.001186 -73.472076 0.001186 342.235809
37 342.235809 -0.000477 0.000238 0.001186 -73.322716 0.001186 342.235809
38 342.235809 -0.000477 0.000238 0.001186 -73.173386 0.001186 342.235809
[L_Toe2_03]
36 420.210846 -0.000715 0.000000 -0.039208 88.241638 -0.035711 420.210846
37 420.210846 -0.000715 0.000000 -0.035268 88.035065 -0.031771 420.210846
38 420.210846 -0.000715 0.000000 -0.029231 87.603470 -0.025733 420.210846
[L_Toe3_02]
36 329.270111 0.000954 0.000000 0.004676 -84.351280 0.004676 329.270111
37 329.270111 0.000954 0.000000 0.004676 -84.345840 0.004676 329.270111
38 329.270111 0.000954 0.000000 0.004676 -84.227356 0.004676 329.270111
[L_Toe3_03]
36 439.137451 -0.001907 0.000954 179.992523 54.063122 179.999878 439.137451
37 439.137451 -0.001907 0.000954 179.992462 54.674721 179.999802 439.137451
38 439.137451 -0.001907 0.000954 179.992386 55.539356 179.999710 439.137451
[planeLockWeightLeft]
36 -0.000954 0.000238 -0.000305 -0.011826 -0.004376 0.005620 0.001029
37 -0.000954 0.000238 -0.000305 -0.011826 -0.004376 0.005620 0.001029
38 -0.000954 0.000238 -0.000305 -0.011826 -0.004376 0.005620 0.001029
[R_Leg01]
36 761.455627 -0.001907 -0.000358 121.834213 -2.582468 37.271416 761.455688
37 761.455627 -0.001907 -0.000358 121.915436 -4.032140 35.703781 761.455688
38 761.455627 -0.001907 -0.000358 121.942551 -5.509765 33.822071 761.455688
[R_Leg02]
36 1441.140625 0.000000 -0.000238 -0.028602 0.102268 -82.793945 1441.140625
37 1441.140625 0.000000 -0.000238 -0.172022 0.105062 -86.833321 1441.140625
38 1441.140625 0.000000 -0.000238 -0.336914 0.083954 -91.576668 1441.140625
[R_Leg03]
36 1686.963989 0.000954 0.001431 0.040882 -0.018472 120.682205 1686.963989
37 1686.963989 0.000954 0.001431 0.040666 -0.018943 122.003967 1686.963989
38 1686.963989 0.000954 0.001431 0.048269 -0.023710 123.603363 1686.963989
[R_Foot]
36 3041.560059 -30.531288 -11.204481 9.941340 -23.658588 33.964375 3041.734131
37 3041.560059 -30.531288 -11.204481 9.912927 -23.684629 35.037262 3041.734131
38 3041.560059 -30.531288 -11.204481 9.845061 -23.737545 36.431782 3041.734131
[planeAlignerRight]
36 -0.635147 -812.270569 -0.364304 0.000000 -89.960434 -90.005180 812.270874
37 -0.635147 -812.270569 -0.364304 0.000000 -89.960434 -90.005180 812.270874
38 -0.635147 -812.270569 -0.364304 0.000000 -89.960434 -90.005180 812.270874
[R_Toe1_01]
36 -188.383347 -224.864899 21.052242 77.072044 -3.519380 -171.615784 294.101532
37 -188.383347 -224.864899 21.052242 77.076645 -3.532366 -171.655640 294.101532
38 -188.383347 -224.864899 21.052242 77.087715 -3.588143 -171.864929 294.101532
[R_Toe2_01]
36 200.637817 -220.002121 -148.787384 -90.685822 29.304346 -59.297417 332.857574
37 200.637817 -220.002121 -148.787384 -90.674980 29.301970 -59.278229 332.857574
38 200.637817 -220.002121 -148.787384 -90.586037 29.323389 -59.104382 332.857574
[R_Toe3_01]
36 188.606735 -220.092957 191.126343 -71.941025 -10.366646 -75.423523 347.192566
37 188.606735 -220.092957 191.126343 -71.936523 -10.376438 -75.410873 347.192566
38 188.606735 -220.092957 191.126343 -71.912567 -10.442543 -75.279961 347.192566
[planeLockWeightRight]
36 -0.000477 0.000000 0.000000 -0.011823 -0.004379 -0.000027 0.000477
37 -0.000477 0.000000 0.000000 -0.011823 -0.004379 -0.000027 0.000477
38 -0.000477 0.000000 0.000000 -0.011823 -0.004379 -0.000027 0.000477
[R_Toe1_02]
36 413.762085 0.000477 -0.000119 0.000006 -25.434675 -0.000005 413.762085
37 413.762085 0.000477 -0.000119 0.000006 -25.434675 -0.000005 413.762085
38 413.762085 0.000477 -0.000119 0.000006 -25.434675 -0.000005 413.762085
[R_Toe1_03]
36 464.317810 0.000000 0.001088 0.007253 71.376778 0.007253 464.317810
37 464.317810 0.000000 0.001088 0.007266 71.410240 0.007266 464.317810
38 464.317810 0.000000 0.001088 0.007357 71.642044 0.007357 464.317810
[R_Toe2_02]
36 342.234741 -0.000954 0.000238 0.001197 -67.149368 0.001197 342.234741
37 342.234741 -0.000954 0.000238 0.001197 -67.167809 0.001197 342.234741
38 342.234741 -0.000954 0.000238 0.001197 -67.319336 0.001197 342.234741
[R_Toe2_03]
36 420.210846 0.000715 -0.000268 0.008119 73.377525 0.008119 420.210846
37 420.210846 0.000715 -0.000268 0.008210 73.562775 0.008210 420.210846
38 420.210846 0.000715 -0.000268 0.008303 73.748001 0.008303 420.210846
[R_Toe3_02]
36 329.270355 -0.000477 -0.000954 0.000455 -69.884682 0.001707 329.270355
37 329.270355 -0.000477 -0.000954 0.001192 -69.896751 0.001192 329.270355
38 329.270355 -0.000477 -0.000954 0.001192 -70.059845 0.001192 329.270355
[R_Toe3_03]
36 439.137939 0.000238 0.001431 0.007987 73.100235 0.007987 439.137939
37 439.137939 0.000238 0.001431 0.008080 73.297493 0.008080 439.137939
38 439.137939 0.000238 0.001431 0.008176 73.494766 0.008176 439.137939
[Rear_Leg02]
36 1162.777710 -0.029802 0.005960 1.346033 -2.656581 -138.888046 1162.777710
37 1162.777710 -0.029802 0.005960 1.341249 -2.658998 -138.681808 1162.777710
38 1162.777710 -0.029802 0.005960 1.316232 -2.670874 -138.154297 1162.777710
[Rear_Leg03]
36 607.192505 -0.013351 -0.073195 0.010432 -0.005227 69.579353 607.192505
37 607.192505 -0.013351 -0.073195 0.010435 -0.005221 69.517136 607.192505
38 607.192505 -0.013351 -0.073195 0.010438 -0.005216 69.454918 607.192505
[Rear_Leg04]
36 995.874512 -0.020504 -0.011921 -0.040558 -0.018000 69.497070 995.874573
37 995.874512 -0.020504 -0.011921 -0.040550 -0.018020 69.442886 995.874573
38 995.874512 -0.020504 -0.011921 -0.040490 -0.018153 69.064674 995.874573
[Rear_Foot]
36 3096.176270 -0.067472 -0.041425 -15.720016 80.459000 173.525894 3096.176270
37 3096.176270 -0.067472 -0.041425 -16.043787 80.669823 173.452377 3096.176270
38 3096.176270 -0.067472 -0.041425 -16.788378 81.108963 173.090485 3096.176270
[planeAlignerCenter]
36 0.350077 0.966311 -838.790894 0.000009 0.000003 -179.999985 838.791565
37 0.350077 0.966311 -838.790894 0.000009 0.000003 -179.999985 838.791565
38 0.350077 0.966311 -838.790894 0.000009 0.000003 -179.999985 838.791565
[Rear_Toe1_01]
36 0.653352 83.966492 -371.173737 0.288091 41.914127 90.413170 380.553192
37 0.653352 83.966492 -371.173737 0.288091 41.914127 90.413170 380.553192
38 0.653352 83.966492 -371.173737 0.288091 41.914127 90.413170 380.553192
[Rear_Toe2_01]
36 178.200760 -294.826019 -362.060547 -7.196267 34.406261 -66.271294 499.765686
37 178.200760 -294.826019 -362.060547 -7.196267 34.406261 -66.271294 499.765686
38 178.200760 -294.826019 -362.060547 -7.196267 34.406261 -66.271294 499.765686
[Rear_Toe3_01]
36 -153.359680 -308.780914 -362.060852 3.289418 33.518005 -112.540970 499.952881
37 -153.359680 -308.780914 -362.060852 3.289418 33.518005 -112.540970 499.952881
38 -153.359680 -308.780914 -362.060852 3.289418 33.518005 -112.540970 499.952881
[planeLockWeightCenter]
36 -0.000062 0.000238 0.000000 -0.011814 -0.004373 -0.000015 0.000246
37 -0.000062 0.000238 0.000000 -0.011814 -0.004373 -0.000015 0.000246
38 -0.000062 0.000238 0.000000 -0.011814 -0.004373 -0.000015 0.000246
[Rear_Toe1_02]
36 379.707825 0.194073 0.000477 -0.000242 -31.676744 0.006934 379.707855
37 379.707825 0.194073 0.000477 -0.000242 -31.676744 0.006934 379.707855
38 379.707825 0.194073 0.000477 -0.000242 -31.676744 0.006934 379.707855
[Rear_Toe1_03]
36 500.129700 0.165701 0.000119 -0.000103 51.902481 0.007295 500.129761
37 500.129700 0.165701 0.000119 -0.000103 51.902481 0.007295 500.129761
38 500.129700 0.165701 0.000119 -0.000103 51.902481 0.007295 500.129761
[Rear_Toe2_02]
36 340.494507 0.000238 -0.000954 0.001192 -69.854523 0.001192 340.494507
37 340.494507 0.000238 -0.000954 0.001192 -69.854523 0.001192 340.494507
38 340.494507 0.000238 -0.000954 0.001192 -69.854523 0.001192 340.494507
[Rear_Toe2_03]
36 433.103577 0.000000 0.000238 0.006696 69.810326 0.006696 433.103546
37 433.103577 0.000000 0.000238 0.006696 69.810326 0.006696 433.103546
38 433.103577 0.000000 0.000238 0.006696 69.810326 0.006696 433.103546
[Rear_Toe3_02]
36 340.494141 -0.000358 -0.000477 0.008288 -67.274704 -0.009460 340.494171
37 340.494141 -0.000358 -0.000477 0.008288 -67.274704 -0.009460 340.494171
38 340.494141 -0.000358 -0.000477 0.008288 -67.274704 -0.009460 340.494171
[Rear_Toe3_03]
36 433.103577 0.001431 -0.000238 -0.000972 65.958984 -0.004547 433.103546
37 433.103577 0.001431 -0.000238 -0.000972 65.958984 -0.004547 433.103546
38 433.103577 0.001431 -0.000238 -0.000972 65.958984 -0.004547 433.103546
[Back_Bone]
36 1312.175781 -701.934692 0.000954 0.000023 -0.000007 -85.606667 1488.125488
37 1312.175781 -701.934692 0.000954 0.000023 -0.000007 -85.606667 1488.125488
38 1312.175781 -701.934692 0.000954 0.000023 -0.000007 -85.606667 1488.125488
[Head]
36 1406.159424 809.709290 0.001431 0.043511 -0.670745 8.084558 1622.625488
37 1406.159424 809.709290 0.001431 0.118773 -0.728940 8.077481 1622.625488
38 1406.159424 809.709290 0.001431 0.194042 -0.787127 8.070326 1622.625488
[Motor_Bone]
36 1158.364380 -417.834747 0.000477 -0.000105 0.000046 -105.985291 1231.419434
37 1158.364380 -417.834747 0.000477 -0.000105 0.000046 -105.985291 1231.419434
38 1158.364380 -417.834747 0.000477 -0.000105 0.000046 -105.985291 1231.419434
[Ping_Mechanism]
36 1215.237793 -433.297150 0.000954 0.000103 -0.000053 82.120995 1290.174072
37 1215.237793 -433.297150 0.000954 0.000103 -0.000053 82.120995 1290.174072
38 1215.237793 -433.297150 0.000954 0.000103 -0.000053 82.120995 1290.174072
[BN_LookIK]
36 193.241119 1380.371704 -0.002861 0.000000 89.965736 -31.038179 1393.832153
37 193.241119 1380.371704 -0.002861 0.000000 89.965736 -31.038179 1393.832153
38 193.241119 1380.371704 -0.002861 0.000000 89.965736 -31.038179 1393.832153
[bottomMouth]
36 -435.092926 615.759399 -0.000954 -0.000022 0.000016 73.527184 753.966492
37 -435.092926 615.759399 -0.000954 -0.000022 0.000016 73.527184 753.966492
38 -435.092926 615.759399 -0.000954 -0.000022 0.000016 73.527184 753.966492
[L_Mouth01]
36 554.440979 7.658243 838.222046 150.204178 23.759130 109.605339 1005.027161
37 554.440979 7.658243 838.222046 150.204178 23.759130 109.605339 1005.027161
38 554.440979 7.658243 838.222046 150.204178 23.759130 109.605339 1005.027161
[L_mouthFront]
36 551.629089 934.514771 339.150421 0.000081 2.804060 79.119301 1136.941284
37 551.629089 934.514771 339.150421 0.000081 2.804060 79.119301 1136.941284
38 551.629089 934.514771 339.150421 0.000081 2.804060 79.119301 1136.941284
[mouthGun]
36 55.332661 1627.420898 0.000000 0.000023 0.000009 -11.038128 1628.361328
37 55.332661 1627.420898 0.000000 0.000023 0.000009 -11.038128 1628.361328
38 55.332661 1627.420898 0.000000 0.000023 0.000009 -11.038128 1628.361328
[R_Mouth01]
36 554.442383 7.659197 -838.223938 29.795891 -23.759109 109.605331 1005.029541
37 554.442383 7.659197 -838.223938 29.795891 -23.759109 109.605331 1005.029541
38 554.442383 7.659197 -838.223938 29.795891 -23.759109 109.605331 1005.029541
[R_mouthFront]
36 551.629089 934.514282 -339.151367 0.000029 -2.803930 79.119133 1136.941162
37 551.629089 934.514282 -339.151367 0.000029 -2.803930 79.119133 1136.941162
38 551.629089 934.514282 -339.151367 0.000029 -2.803930 79.119133 1136.941162
[TopMouth]
36 461.269867 -56.106091 -0.008583 -0.000059 -0.000268 92.025169 464.669525
37 461.269867 -56.106091 -0.008583 -0.000059 -0.000268 92.025169 464.669525
38 461.269867 -56.106091 -0.008583 -0.000059 -0.000268 92.025169 464.669525
[weapon_bone]
36 -987.239868 1448.372803 0.001431 0.000000 89.965736 -31.038221 1752.833740
37 -987.239868 1448.372803 0.001431 0.000000 89.965736 -31.038221 1752.833740
38 -987.239868 1448.372803 0.001431 0.000000 89.965736 -31.038221 1752.833740
